#Comment line ignore any data following # character 
#Hierarchical Translation and Rotation (.htr) file 
[Header]	
#Header keywords are followed by a single value 
FileType HTR		#Single word string
DataType HTRS		#Translation followed by rotation and scale data
FileVersion 1		#integer
NumSegments 64		#integer
NumFrames 3		#integer
DataFrameRate 30		#integer, data frame rate in this file
EulerRotationOrder ZYX
CalibrationUnits mm
RotationUnits Degrees
GlobalAxisofGravity Y
BoneLengthAxis Y
ScaleFactor 1.00
[SegmentNames&Hierarchy]
#CHILD	PARENT
Pinger_Root GLOBAL
Pelvis Pinger_Root
L_Hip Pelvis
R_Hip Pelvis
Rear_Leg01 Pelvis
Spine1 Pelvis
L_Leg01 L_Hip
L_Leg02 L_Leg01
L_Leg03 L_Leg02
L_Foot L_Leg03
L_Toe1_01 L_Foot
L_Toe2_01 L_Foot
L_Toe3_01 L_Foot
planeAlignerLeft L_Foot
L_Toe1_02 L_Toe1_01
L_Toe1_03 L_Toe1_02
L_Toe2_02 L_Toe2_01
L_Toe2_03 L_Toe2_02
L_Toe3_02 L_Toe3_01
L_Toe3_03 L_Toe3_02
planeLockWeightLeft planeAlignerLeft
R_Leg01 R_Hip
R_Leg02 R_Leg01
R_Leg03 R_Leg02
R_Foot R_Leg03
planeAlignerRight R_Foot
R_Toe1_01 R_Foot
R_Toe2_01 R_Foot
R_Toe3_01 R_Foot
planeLockWeightRight planeAlignerRight
R_Toe1_02 R_Toe1_01
R_Toe1_03 R_Toe1_02
R_Toe2_02 R_Toe2_01
R_Toe2_03 R_Toe2_02
R_Toe3_02 R_Toe3_01
R_Toe3_03 R_Toe3_02
Rear_Leg02 Rear_Leg01
Rear_Leg03 Rear_Leg02
Rear_Leg04 Rear_Leg03
Rear_Foot Rear_Leg04
planeAlignerCenter Rear_Foot
Rear_Toe1_01 Rear_Foot
Rear_Toe2_01 Rear_Foot
Rear_Toe3_01 Rear_Foot
planeLockWeightCenter planeAlignerCenter
Rear_Toe1_02 Rear_Toe1_01
Rear_Toe1_03 Rear_Toe1_02
Rear_Toe2_02 Rear_Toe2_01
Rear_Toe2_03 Rear_Toe2_02
Rear_Toe3_02 Rear_Toe3_01
Rear_Toe3_03 Rear_Toe3_02
Back_Bone Spine1
Head Spine1
Motor_Bone Back_Bone
Ping_Mechanism Back_Bone
BN_LookIK Head
bottomMouth Head
L_Mouth01 Head
L_mouthFront Head
mouthGun Head
R_Mouth01 Head
R_mouthFront Head
TopMouth Head
weapon_bone Head
[BasePosition]
#SegmentName Tx, Ty, Tz, Rx, Ry, Rz, BoneLength
Pinger_Root 0.000000 0.000000 0.000000 -90.000000 0.000000 0.000000 10.000000 
Pelvis 0.000000 0.000000 0.000000 0.000000 0.000000 0.000000 10.000000 
L_Hip 0.000000 0.000000 0.000000 0.000000 0.000000 0.000000 10.000000 
R_Hip 0.000000 0.000000 0.000000 0.000000 0.000000 0.000000 10.000000 
Rear_Leg01 0.000000 0.000000 0.000000 0.000000 0.000000 0.000000 10.000000 
Spine1 0.000000 0.000000 0.000000 0.000000 0.000000 0.000000 10.000000 
L_Leg01 0.000000 0.000000 0.000000 0.000000 0.000000 0.000000 10.000000 
L_Leg02 0.000000 0.000000 0.000000 0.000000 0.000000 0.000000 10.000000 
L_Leg03 0.000000 0.000000 0.000000 0.000000 0.000000 0.000000 10.000000 
L_Foot 0.000000 0.000000 0.000000 0.000000 0.000000 0.000000 10.000000 
L_Toe1_01 0.000000 0.000000 0.000000 0.000000 0.000000 0.000000 10.000000 
L_Toe2_01 0.000000 0.000000 0.000000 0.000000 0.000000 0.000000 10.000000 
L_Toe3_01 0.000000 0.000000 0.000000 0.000000 0.000000 0.000000 10.000000 
planeAlignerLeft 0.000000 0.000000 0.000000 0.000000 0.000000 0.000000 10.000000 
L_Toe1_02 0.000000 0.000000 0.000000 0.000000 0.000000 0.000000 10.000000 
L_Toe1_03 0.000000 0.000000 0.000000 0.000000 0.000000 0.000000 10.000000 
L_Toe2_02 0.000000 0.000000 0.000000 0.000000 0.000000 0.000000 10.000000 
L_Toe2_03 0.000000 0.000000 0.000000 0.000000 0.000000 0.000000 10.000000 
L_Toe3_02 0.000000 0.000000 0.000000 0.000000 0.000000 0.000000 10.000000 
L_Toe3_03 0.000000 0.000000 0.000000 0.000000 0.000000 0.000000 10.000000 
planeLockWeightLeft 0.000000 0.000000 0.000000 0.000000 0.000000 0.000000 10.000000 
R_Leg01 0.000000 0.000000 0.000000 0.000000 0.000000 0.000000 10.000000 
R_Leg02 0.000000 0.000000 0.000000 0.000000 0.000000 0.000000 10.000000 
R_Leg03 0.000000 0.000000 0.000000 0.000000 0.000000 0.000000 10.000000 
R_Foot 0.000000 0.000000 0.000000 0.000000 0.000000 0.000000 10.000000 
planeAlignerRight 0.000000 0.000000 0.000000 0.000000 0.000000 0.000000 10.000000 
R_Toe1_01 0.000000 0.000000 0.000000 0.000000 0.000000 0.000000 10.000000 
R_Toe2_01 0.000000 0.000000 0.000000 0.000000 0.000000 0.000000 10.000000 
R_Toe3_01 0.000000 0.000000 0.000000 0.000000 0.000000 0.000000 10.000000 
planeLockWeightRight 0.000000 0.000000 0.000000 0.000000 0.000000 0.000000 10.000000 
R_Toe1_02 0.000000 0.000000 0.000000 0.000000 0.000000 0.000000 10.000000 
R_Toe1_03 0.000000 0.000000 0.000000 0.000000 0.000000 0.000000 10.000000 
R_Toe2_02 0.000000 0.000000 0.000000 0.000000 0.000000 0.000000 10.000000 
R_Toe2_03 0.000000 0.000000 0.000000 0.000000 0.000000 0.000000 10.000000 
R_Toe3_02 0.000000 0.000000 0.000000 0.000000 0.000000 0.000000 10.000000 
R_Toe3_03 0.000000 0.000000 0.000000 0.000000 0.000000 0.000000 10.000000 
Rear_Leg02 0.000000 0.000000 0.000000 0.000000 0.000000 0.000000 10.000000 
Rear_Leg03 0.000000 0.000000 0.000000 0.000000 0.000000 0.000000 10.000000 
Rear_Leg04 0.000000 0.000000 0.000000 0.000000 0.000000 0.000000 10.000000 
Rear_Foot 0.000000 0.000000 0.000000 0.000000 0.000000 0.000000 10.000000 
planeAlignerCenter 0.000000 0.000000 0.000000 0.000000 0.000000 0.000000 10.000000 
Rear_Toe1_01 0.000000 0.000000 0.000000 0.000000 0.000000 0.000000 10.000000 
Rear_Toe2_01 0.000000 0.000000 0.000000 0.000000 0.000000 0.000000 10.000000 
Rear_Toe3_01 0.000000 0.000000 0.000000 0.000000 0.000000 0.000000 10.000000 
planeLockWeightCenter 0.000000 0.000000 0.000000 0.000000 0.000000 0.000000 10.000000 
Rear_Toe1_02 0.000000 0.000000 0.000000 0.000000 0.000000 0.000000 10.000000 
Rear_Toe1_03 0.000000 0.000000 0.000000 0.000000 0.000000 0.000000 10.000000 
Rear_Toe2_02 0.000000 0.000000 0.000000 0.000000 0.000000 0.000000 10.000000 
Rear_Toe2_03 0.000000 0.000000 0.000000 0.000000 0.000000 0.000000 10.000000 
Rear_Toe3_02 0.000000 0.000000 0.000000 0.000000 0.000000 0.000000 10.000000 
Rear_Toe3_03 0.000000 0.000000 0.000000 0.000000 0.000000 0.000000 10.000000 
Back_Bone 0.000000 0.000000 0.000000 0.000000 0.000000 0.000000 10.000000 
Head 0.000000 0.000000 0.000000 0.000000 0.000000 0.000000 10.000000 
Motor_Bone 0.000000 0.000000 0.000000 0.000000 0.000000 0.000000 10.000000 
Ping_Mechanism 0.000000 0.000000 0.000000 0.000000 0.000000 0.000000 10.000000 
BN_LookIK 0.000000 0.000000 0.000000 0.000000 0.000000 0.000000 10.000000 
bottomMouth 0.000000 0.000000 0.000000 0.000000 0.000000 0.000000 10.000000 
L_Mouth01 0.000000 0.000000 0.000000 0.000000 0.000000 0.000000 10.000000 
L_mouthFront 0.000000 0.000000 0.000000 0.000000 0.000000 0.000000 10.000000 
mouthGun 0.000000 0.000000 0.000000 0.000000 0.000000 0.000000 10.000000 
R_Mouth01 0.000000 0.000000 0.000000 0.000000 0.000000 0.000000 10.000000 
R_mouthFront 0.000000 0.000000 0.000000 0.000000 0.000000 0.000000 10.000000 
TopMouth 0.000000 0.000000 0.000000 0.000000 0.000000 0.000000 10.000000 
weapon_bone 0.000000 0.000000 0.000000 0.000000 0.000000 0.000000 10.000000 
#Beginning of Data. Separated by tabs
#Fr	Tx	Ty	Tz	Rx	Ry	Rz	SF
[Pinger_Root]
4 0.000000 0.000000 0.000000 -0.000075 -0.000000 -0.000020 0.000000
5 0.000000 0.000000 0.000000 -0.000075 -0.000000 -0.000020 0.000000
6 0.000000 0.000000 0.000000 -0.000075 -0.000000 -0.000020 0.000000
[Pelvis]
4 66.757187 918.107971 4432.233398 -100.451492 -85.971725 91.836235 4526.816895
5 64.933632 918.631836 4432.233398 -100.413063 -85.972603 90.649857 4526.896484
6 73.375320 924.615723 4422.866699 -95.194443 -86.159218 83.953674 4519.076172
[L_Hip]
4 5.766392 125.831482 872.656799 160.158691 -45.484905 122.312202 881.701050
5 5.766392 125.831482 872.656799 160.158691 -45.484905 122.312202 881.701050
6 5.766392 125.831482 872.656799 159.832397 -46.223644 122.724022 881.701050
[R_Hip]
4 5.765438 125.836372 -872.654907 38.087841 49.812687 125.703735 881.699829
5 5.765438 125.836372 -872.654907 38.087841 49.812687 125.703735 881.699829
6 5.765438 125.836372 -872.654907 38.667522 49.426704 126.463753 881.699829
[Rear_Leg01]
4 -192.298416 -925.602966 -0.001907 168.833801 2.680735 -159.724792 945.367432
5 -192.298416 -925.602966 -0.001907 167.846527 3.422049 -159.800262 945.367432
6 -192.298416 -925.602966 -0.001907 166.695160 4.635404 -159.611465 945.367432
[Spine1]
4 290.604584 5.007505 0.000477 8.812035 -1.229161 19.125122 290.647736
5 290.604584 5.007505 0.000477 9.952301 -1.694146 19.069019 290.647736
6 290.604584 5.007505 0.000477 10.698949 -2.228740 19.227407 290.647736
[L_Leg01]
4 761.932007 -0.002384 -0.069261 22.410307 -14.712059 -9.034555 761.932068
5 761.932007 -0.002384 -0.069261 22.022785 -13.504389 -9.083045 761.932068
6 761.932007 -0.002384 -0.069261 21.521959 -12.917818 -9.244651 761.932068
[L_Leg02]
4 1441.140503 -0.000954 -0.000715 2.648862 -0.186720 -129.418320 1441.140503
5 1441.140503 -0.000954 -0.000715 2.678299 -0.188162 -129.707886 1441.140503
6 1441.140503 -0.000954 -0.000715 2.768743 -0.188076 -130.536346 1441.140503
[L_Leg03]
4 1686.963989 -0.000715 -0.000954 -0.029923 0.014764 118.309570 1686.963989
5 1686.963989 -0.000715 -0.000954 -0.029915 0.014779 118.366440 1686.963989
6 1686.963989 -0.000715 -0.000954 -0.029908 0.014793 118.423309 1686.963989
[L_Foot]
4 3041.570068 -30.715107 11.297464 1.767731 13.084049 55.863426 3041.746094
5 3041.570068 -30.715107 11.297464 1.424814 13.076414 56.320759 3041.746094
6 3041.570068 -30.715107 11.297464 1.081853 13.071445 56.778114 3041.746094
[L_Toe1_01]
4 -188.216690 -224.732346 -21.137953 93.719086 -6.862505 -171.970444 293.899567
5 -188.216690 -224.732346 -21.137953 93.719086 -6.862506 -171.970444 293.899567
6 -188.216690 -224.732346 -21.137953 93.670868 -6.862929 -171.380661 293.899567
[L_Toe2_01]
4 200.746536 -219.926590 148.838394 -90.023987 -26.311703 -52.677628 332.896027
5 200.746536 -219.926590 148.838394 -90.023987 -26.311708 -52.677635 332.896027
6 200.746536 -219.926590 148.838394 -89.789993 -26.126713 -53.372616 332.896027
[L_Toe3_01]
4 188.832520 -219.859131 -191.078659 -99.788055 13.839008 -67.673027 347.140900
5 188.832520 -219.859131 -191.078659 -99.788055 13.839006 -67.673035 347.140900
6 188.832520 -219.859131 -191.078659 -99.894035 13.635509 -68.437462 347.140900
[planeAlignerLeft]
4 32.991100 -593.019653 101.088058 169.306686 -76.298271 89.968506 602.477844
5 32.991024 -593.019592 101.087952 169.306671 -76.298279 89.968544 602.477722
6 32.990719 -602.993347 101.085968 169.306686 -76.298271 89.968506 612.297119
[L_Toe1_02]
4 413.761139 0.000477 0.000000 0.001384 -25.997711 0.001384 413.761139
5 413.761139 0.000477 0.000000 0.001384 -25.992636 0.001384 413.761139
6 413.761139 0.000477 0.000000 0.001384 -25.987558 0.001384 413.761139
[L_Toe1_03]
4 464.317322 0.000358 -0.000089 0.003734 53.359097 0.003734 464.317322
5 464.317322 0.000358 -0.000089 0.003734 53.359097 0.003734 464.317322
6 464.317322 0.000358 -0.000089 0.003694 52.949886 0.003694 464.317322
[L_Toe2_02]
4 342.235809 -0.000477 0.000238 0.001188 -72.402016 0.001188 342.235809
5 342.235809 -0.000477 0.000238 0.001188 -72.402016 0.001188 342.235809
6 342.235809 -0.000477 0.000238 0.001188 -72.004150 0.001188 342.235809
[L_Toe2_03]
4 420.210846 -0.000715 0.000000 0.029090 85.375565 0.029090 420.210846
5 420.210846 -0.000715 0.000000 0.029090 85.375511 0.029090 420.210846
6 420.210846 -0.000715 0.000000 0.023814 84.350281 0.023814 420.210846
[L_Toe3_02]
4 329.270111 0.000954 0.000000 0.001178 -80.480331 0.001178 329.270111
5 329.270111 0.000954 0.000000 0.001178 -80.480331 0.001178 329.270111
6 329.270111 0.000954 0.000000 0.001178 -80.150345 0.001178 329.270111
[L_Toe3_03]
4 439.137451 -0.001907 0.000954 -179.995956 78.605698 -179.992447 439.137451
5 439.137451 -0.001907 0.000954 -179.995956 78.605698 -179.992447 439.137451
6 439.137451 -0.001907 0.000954 -179.995224 79.902794 -179.991714 439.137451
[planeLockWeightLeft]
4 999.999207 0.098267 0.076159 -0.011826 -0.004376 0.005620 999.999207
5 999.999207 0.098267 0.076158 -0.011826 -0.004376 0.005620 999.999207
6 999.999207 0.098267 0.076158 -0.011826 -0.004376 0.005620 999.999207
[R_Leg01]
4 761.455627 -0.001907 -0.000358 119.345116 -8.875658 35.795891 761.455688
5 761.455627 -0.001907 -0.000358 118.438622 -9.759278 36.033222 761.455688
6 761.455627 -0.001907 -0.000358 117.129631 -11.245770 35.092121 761.455688
[R_Leg02]
4 1441.140625 0.000000 -0.000238 -1.321956 -0.193480 -118.470100 1441.140625
5 1441.140625 0.000000 -0.000238 -1.308979 -0.185958 -118.113098 1441.140625
6 1441.140625 0.000000 -0.000238 -1.351813 -0.207923 -119.325386 1441.140625
[R_Leg03]
4 1686.963989 0.000954 0.001431 0.075818 -0.043486 131.257202 1686.963989
5 1686.963989 0.000954 0.001431 0.075837 -0.043453 131.206985 1686.963989
6 1686.963989 0.000954 0.001431 0.077851 -0.044571 131.643936 1686.963989
[R_Foot]
4 3041.560059 -30.531288 -11.204481 -0.630650 -24.664577 54.777035 3041.734131
5 3041.560059 -30.531288 -11.204481 -0.747153 -24.649643 54.373627 3041.734131
6 3041.560059 -30.531288 -11.204481 -1.969867 -24.607075 54.272987 3041.734131
[planeAlignerRight]
4 -127.145844 -574.020569 -312.905212 -36.577137 -71.339012 -64.343925 666.014526
5 -127.144768 -574.020813 -312.905731 -36.577137 -71.339012 -64.343925 666.014771
6 -127.184746 -561.944336 -322.518280 -35.219749 -70.369324 -65.635223 660.284424
[R_Toe1_01]
4 -188.383347 -224.864899 21.052242 76.763535 -0.414595 -172.728699 294.101532
5 -188.383347 -224.864899 21.052242 76.763535 -0.414595 -172.728699 294.101532
6 -188.383347 -224.864899 21.052242 75.697052 -0.148770 -173.117294 294.101532
[R_Toe2_01]
4 200.637817 -220.002121 -148.787384 -91.743256 32.873833 -59.182163 332.857574
5 200.637817 -220.002121 -148.787384 -91.743256 32.873833 -59.182163 332.857574
6 200.637817 -220.002121 -148.787384 -90.962753 34.137550 -58.401436 332.857574
[R_Toe3_01]
4 188.606735 -220.092957 191.126343 -73.225998 -8.456855 -73.756157 347.192566
5 188.606735 -220.092957 191.126343 -73.225998 -8.456855 -73.756157 347.192566
6 188.606735 -220.092957 191.126343 -72.998627 -7.322604 -73.628677 347.192566
[planeLockWeightRight]
4 999.999573 0.000083 0.075982 -0.011823 -0.004379 -0.000027 999.999573
5 999.999573 0.000111 0.075964 -0.011823 -0.004379 -0.000027 999.999573
6 999.999512 0.000139 0.075945 -0.011823 -0.004379 -0.000027 999.999512
[R_Toe1_02]
4 413.762085 0.000477 -0.000119 0.001395 -24.572174 0.001395 413.762085
5 413.762085 0.000477 -0.000119 0.001395 -24.543072 0.001395 413.762085
6 413.762085 0.000477 -0.000119 0.001395 -24.513973 0.001395 413.762085
[R_Toe1_03]
4 464.317810 0.000000 0.001088 0.006625 69.593369 0.006625 464.317810
5 464.317810 0.000000 0.001088 0.006625 69.593369 0.006625 464.317810
6 464.317810 0.000000 0.001088 0.006763 70.012573 0.006763 464.317810
[R_Toe2_02]
4 342.234741 -0.000954 0.000238 0.001197 -67.216805 0.001197 342.234741
5 342.234741 -0.000954 0.000238 0.001197 -67.215302 0.001197 342.234741
6 342.234741 -0.000954 0.000238 0.001196 -67.666435 0.001196 342.234741
[R_Toe2_03]
4 420.210846 0.000715 -0.000268 0.008232 73.607422 0.008232 420.210846
5 420.210846 0.000715 -0.000268 0.008231 73.605896 0.008231 420.210846
6 420.210846 0.000715 -0.000268 0.008549 74.218628 0.008549 420.210846
[R_Toe3_02]
4 329.270355 -0.000477 -0.000954 0.001184 -74.645500 0.001184 329.270355
5 329.270355 -0.000477 -0.000954 0.001184 -74.687775 0.001184 329.270355
6 329.270355 -0.000477 -0.000954 0.001184 -74.730042 0.001184 329.270355
[R_Toe3_03]
4 439.137939 0.000238 0.001431 -0.011587 83.300278 -0.008085 439.137939
5 439.137939 0.000238 0.001431 -0.011587 83.300278 -0.008085 439.137939
6 439.137939 0.000238 0.001431 -0.012409 83.817566 -0.008907 439.137939
[Rear_Leg02]
4 1162.777710 -0.029802 0.005960 0.627215 -2.918491 -123.554314 1162.777710
5 1162.777710 -0.029802 0.005960 0.624700 -2.919146 -123.508209 1162.777710
6 1162.777710 -0.029802 0.005960 0.622186 -2.919798 -123.462105 1162.777710
[Rear_Leg03]
4 607.192505 -0.013351 -0.073195 0.006472 -0.002119 64.474434 607.192505
5 607.192505 -0.013351 -0.073195 0.006472 -0.002120 64.478615 607.192505
6 607.192505 -0.013351 -0.073195 0.006472 -0.002120 64.482788 607.192505
[Rear_Leg04]
4 995.874512 -0.020504 -0.011921 -0.040546 -0.015084 58.460247 995.874573
5 995.874512 -0.020504 -0.011921 -0.040542 -0.015096 58.426247 995.874573
6 995.874512 -0.020504 -0.011921 -0.040537 -0.015108 58.392231 995.874573
[Rear_Foot]
4 3096.176270 -0.067472 -0.041425 -140.022964 86.098808 52.831673 3096.176270
5 3096.176270 -0.067472 -0.041425 -138.606873 86.210800 54.281601 3096.176270
6 3096.176270 -0.067472 -0.041425 -137.075745 86.340286 56.199726 3096.176270
[planeAlignerCenter]
4 1.039314 -15.214347 -777.166504 12.239139 -0.058198 179.970535 777.316101
5 1.039200 -15.214385 -777.168213 12.238596 -0.077107 179.961334 777.317810
6 1.039085 -15.214423 -777.169861 12.238060 -0.096015 179.952118 777.319458
[Rear_Toe1_01]
4 0.653352 83.966492 -371.173737 0.294986 41.915512 90.415276 380.553192
5 0.653352 83.966492 -371.173737 0.294364 41.915985 90.414848 380.553192
6 0.653352 83.966492 -371.173737 0.293737 41.916451 90.414429 380.553192
[Rear_Toe2_01]
4 178.200760 -294.826019 -362.060547 -7.196267 34.406261 -66.271294 499.765686
5 178.200760 -294.826019 -362.060547 -7.196267 34.406261 -66.271294 499.765686
6 178.200760 -294.826019 -362.060547 -7.196267 34.406261 -66.271294 499.765686
[Rear_Toe3_01]
4 -153.359680 -308.780914 -362.060852 3.289418 33.518005 -112.540970 499.952881
5 -153.359680 -308.780914 -362.060852 3.289418 33.518005 -112.540970 499.952881
6 -153.359680 -308.780914 -362.060852 3.289418 33.518005 -112.540970 499.952881
[planeLockWeightCenter]
4 1000.000000 0.000000 0.076294 -0.011814 -0.004373 -0.000015 1000.000000
5 1000.000000 0.000000 0.076300 -0.011814 -0.004373 -0.000015 1000.000000
6 1000.000000 0.000000 0.076306 -0.011814 -0.004373 -0.000015 1000.000000
[Rear_Toe1_02]
4 379.707825 0.194073 0.000477 -0.000242 -31.676744 0.006934 379.707855
5 379.707825 0.194073 0.000477 -0.000242 -31.676744 0.006934 379.707855
6 379.707825 0.194073 0.000477 -0.000242 -31.676744 0.006934 379.707855
[Rear_Toe1_03]
4 500.129700 0.165701 0.000119 -0.000103 51.902481 0.007295 500.129761
5 500.129700 0.165701 0.000119 -0.000103 51.902481 0.007295 500.129761
6 500.129700 0.165701 0.000119 -0.000103 51.902481 0.007295 500.129761
[Rear_Toe2_02]
4 340.494507 0.000238 -0.000954 0.001192 -69.854523 0.001192 340.494507
5 340.494507 0.000238 -0.000954 0.001192 -69.854523 0.001192 340.494507
6 340.494507 0.000238 -0.000954 0.001192 -69.854523 0.001192 340.494507
[Rear_Toe2_03]
4 433.103577 0.000000 0.000238 0.006696 69.810303 0.006696 433.103546
5 433.103577 0.000000 0.000238 0.006696 69.810326 0.006696 433.103546
6 433.103577 0.000000 0.000238 0.006696 69.810326 0.006696 433.103546
[Rear_Toe3_02]
4 340.494141 -0.000358 -0.000477 0.008288 -67.274704 -0.009460 340.494171
5 340.494141 -0.000358 -0.000477 0.008288 -67.274704 -0.009460 340.494171
6 340.494141 -0.000358 -0.000477 0.008288 -67.274704 -0.009460 340.494171
[Rear_Toe3_03]
4 433.103577 0.001431 -0.000238 -0.000972 65.958984 -0.004547 433.103546
5 433.103577 0.001431 -0.000238 -0.000972 65.958984 -0.004547 433.103546
6 433.103577 0.001431 -0.000238 -0.000972 65.959007 -0.004547 433.103546
[Back_Bone]
4 1312.175781 -701.934692 0.000954 0.000023 -0.000007 -85.606667 1488.125488
5 1312.175781 -701.934692 0.000954 0.000023 -0.000007 -85.606667 1488.125488
6 1312.175781 -701.934692 0.000954 0.000023 -0.000007 -85.606667 1488.125488
[Head]
4 1406.159424 809.709290 0.001431 0.000008 0.000003 7.767519 1622.625488
5 1406.159424 809.709290 0.001431 0.000008 0.000003 7.767519 1622.625488
6 1406.159424 809.709290 0.001431 0.000008 0.000003 7.767519 1622.625488
[Motor_Bone]
4 1158.364380 -417.834747 0.000477 -0.095385 0.076104 -105.915703 1231.419434
5 1158.364380 -417.834747 0.000477 -0.095385 0.076104 -105.915703 1231.419434
6 1158.364380 -417.834747 0.000477 -0.094708 0.577631 -105.884048 1231.419434
[Ping_Mechanism]
4 1237.708008 -443.841553 -3.606603 0.000103 -0.000053 82.120995 1314.887573
5 1237.463379 -443.726471 -2.756639 0.000103 -0.000053 82.120995 1314.616455
6 1237.218750 -443.611450 -1.906675 0.000103 -0.000053 82.120995 1314.345825
[BN_LookIK]
4 193.241119 1380.371704 -0.002861 0.000000 89.965736 -31.038179 1393.832153
5 193.241119 1380.371704 -0.002861 0.000000 89.965736 -31.038179 1393.832153
6 193.241119 1380.371704 -0.002861 0.000000 89.965736 -31.038179 1393.832153
[bottomMouth]
4 -435.092926 615.759399 -0.000954 -0.000022 0.000016 73.527184 753.966492
5 -435.092926 615.759399 -0.000954 -0.000022 0.000016 73.527184 753.966492
6 -435.092926 615.759399 -0.000954 -0.000022 0.000016 73.527184 753.966492
[L_Mouth01]
4 554.440979 7.658243 838.222046 150.204178 23.759130 109.605339 1005.027161
5 554.440979 7.658243 838.222046 150.204178 23.759130 109.605339 1005.027161
6 554.440979 7.658243 838.222046 150.204178 23.759130 109.605339 1005.027161
[L_mouthFront]
4 551.629089 934.514771 339.150421 0.000081 2.804060 79.119301 1136.941284
5 551.629089 934.514771 339.150421 0.000081 2.804060 79.119301 1136.941284
6 551.629089 934.514771 339.150421 0.000081 2.804060 79.119301 1136.941284
[mouthGun]
4 55.332661 1627.420898 0.000000 0.000023 0.000009 -11.038128 1628.361328
5 55.332661 1627.420898 0.000000 0.000023 0.000009 -11.038128 1628.361328
6 55.332661 1627.420898 0.000000 0.000023 0.000009 -11.038128 1628.361328
[R_Mouth01]
4 554.442383 7.659197 -838.223938 29.795891 -23.759109 109.605331 1005.029541
5 554.442383 7.659197 -838.223938 29.795891 -23.759109 109.605331 1005.029541
6 554.442383 7.659197 -838.223938 29.795891 -23.759109 109.605331 1005.029541
[R_mouthFront]
4 551.629089 934.514282 -339.151367 0.000029 -2.803930 79.119133 1136.941162
5 551.629089 934.514282 -339.151367 0.000029 -2.803930 79.119133 1136.941162
6 551.629089 934.514282 -339.151367 0.000029 -2.803930 79.119133 1136.941162
[TopMouth]
4 461.269867 -56.106091 -0.008583 -0.000059 -0.000268 92.025169 464.669525
5 461.269867 -56.106091 -0.008583 -0.000059 -0.000268 92.025169 464.669525
6 461.269867 -56.106091 -0.008583 -0.000059 -0.000268 92.025169 464.669525
[weapon_bone]
4 -987.239868 1448.372803 0.001431 0.000000 89.965736 -31.038221 1752.833740
5 -987.239868 1448.372803 0.001431 0.000000 89.965736 -31.038221 1752.833740
6 -987.239868 1448.372803 0.001431 0.000000 89.965736 -31.038221 1752.833740
